<svg width="46" height="44" viewBox="0 0 46 44" fill="none" xmlns="http://www.w3.org/2000/svg">
<path d="M10.2021 6.20703H36.5986V8.90234H24.9092V44H21.8916V8.90234H10.2021V6.20703Z" fill="#333333"/>
<path d="M35.2798 0.393799C39.4599 2.17243 42.6787 4.81137 44.4585 7.9195C46.2384 11.0276 46.4851 14.4395 45.1616 17.6494C43.8382 20.8594 41.0148 23.6966 37.1109 25.7404C33.2069 27.7843 28.4303 28.9261 23.4878 28.9966C18.5453 29.067 13.7002 28.0625 9.67141 26.1317C5.64265 24.201 2.64435 21.4468 1.12063 18.2775C-0.403101 15.1081 -0.370738 11.6923 1.21242 8.53621C2.79558 5.38012 5.84497 2.65179 9.90969 0.755585L10.5 1.5C7.06092 3.10434 4.33948 6.3297 3 9C1.66052 11.6703 3.19959 14.8606 4.48879 17.5421C5.77799 20.2237 8.31451 22.5539 11.7232 24.1875C15.1318 25.821 19.2309 26.671 23.4126 26.6113C27.5943 26.5517 31.6359 25.5857 34.939 23.8564C38.242 22.1271 40.6308 19.7266 41.7505 17.0108C42.8702 14.2949 44.0059 11.1297 42.5 8.5C40.9941 5.87028 38.5367 2.50486 35 1L35.2798 0.393799Z" fill="#333333"/>
</svg>
