<svg width="145" height="38" viewBox="0 0 145 38" fill="none" xmlns="http://www.w3.org/2000/svg">
<path d="M1.79688 13.4062C1.79688 12.5469 1.9987 11.7135 2.40234 10.9062C2.80599 10.0859 3.3724 9.35677 4.10156 8.71875C4.83073 8.08073 5.69661 7.57292 6.69922 7.19531C7.70182 6.80469 8.80208 6.60938 10 6.60938C11.0938 6.60938 12.1094 6.8112 13.0469 7.21484C13.9974 7.60547 14.8242 8.13932 15.5273 8.81641C16.2435 9.49349 16.7969 10.3008 17.1875 11.2383C17.5911 12.1758 17.793 13.1654 17.793 14.207H14.6094C14.6094 12.7878 14.1667 11.6354 13.2812 10.75C12.3958 9.85156 11.3021 9.40234 10 9.40234C9.25781 9.40234 8.57422 9.51953 7.94922 9.75391C7.33724 9.97526 6.8099 10.2747 6.36719 10.6523C5.9375 11.0169 5.59896 11.4401 5.35156 11.9219C5.11719 12.4036 5 12.8984 5 13.4062C5 14.4479 5.33203 15.2552 5.99609 15.8281C6.66016 16.401 7.48698 16.8828 8.47656 17.2734C9.46615 17.651 10.5404 18.0091 11.6992 18.3477C12.8581 18.6732 13.9323 19.1094 14.9219 19.6562C15.9115 20.2031 16.7383 20.9258 17.4023 21.8242C18.0664 22.7096 18.3984 23.901 18.3984 25.3984C18.3984 26.3099 18.2031 27.1758 17.8125 27.9961C17.4349 28.8034 16.8815 29.5195 16.1523 30.1445C15.4362 30.7695 14.5573 31.2708 13.5156 31.6484C12.474 32.013 11.3021 32.1953 10 32.1953C8.69792 32.1953 7.52604 32.013 6.48438 31.6484C5.44271 31.2708 4.55729 30.7435 3.82812 30.0664C3.11198 29.3763 2.55859 28.569 2.16797 27.6445C1.79036 26.707 1.60156 25.6914 1.60156 24.5977H4.80469C4.80469 26.1211 5.24089 27.306 6.11328 28.1523C6.9987 28.9857 8.29427 29.4023 10 29.4023C11.7057 29.4023 12.9948 29.0182 13.8672 28.25C14.7526 27.4688 15.1953 26.5182 15.1953 25.3984C15.1953 24.3568 14.8633 23.5495 14.1992 22.9766C13.5352 22.4036 12.7083 21.9284 11.7188 21.5508C10.7292 21.1602 9.65495 20.8021 8.49609 20.4766C7.33724 20.138 6.26302 19.6953 5.27344 19.1484C4.29688 18.6016 3.47005 17.8854 2.79297 17C2.12891 16.1016 1.79688 14.9036 1.79688 13.4062ZM24.1992 22.9961C24.1992 23.9596 24.3424 24.8385 24.6289 25.6328C24.9284 26.4141 25.332 27.0846 25.8398 27.6445C26.3477 28.2044 26.9271 28.6406 27.5781 28.9531C28.2422 29.2526 28.9193 29.4023 29.6094 29.4023C30.2995 29.4023 30.9701 29.2526 31.6211 28.9531C32.2721 28.6406 32.8451 28.2044 33.3398 27.6445C33.8346 27.0846 34.2318 26.4141 34.5312 25.6328C34.8438 24.8385 35 23.9596 35 22.9961C35 22.0326 34.8438 21.1602 34.5312 20.3789C34.2318 19.5977 33.8346 18.9271 33.3398 18.3672C32.8451 17.8073 32.2721 17.3776 31.6211 17.0781C30.9701 16.7656 30.2995 16.6094 29.6094 16.6094C28.9193 16.6094 28.2422 16.7656 27.5781 17.0781C26.9271 17.3776 26.3477 17.8073 25.8398 18.3672C25.332 18.9271 24.9284 19.5977 24.6289 20.3789C24.3424 21.1602 24.1992 22.0326 24.1992 22.9961ZM38.0078 22.9961C38.0078 24.3503 37.7865 25.5938 37.3438 26.7266C36.901 27.8464 36.3021 28.8164 35.5469 29.6367C34.7917 30.444 33.8997 31.0755 32.8711 31.5312C31.8424 31.974 30.7552 32.1953 29.6094 32.1953C28.4635 32.1953 27.3763 31.974 26.3477 31.5312C25.319 31.0755 24.4206 30.444 23.6523 29.6367C22.8971 28.8164 22.2982 27.8464 21.8555 26.7266C21.4258 25.6068 21.2109 24.3633 21.2109 22.9961C21.2109 21.6419 21.4258 20.4049 21.8555 19.2852C22.2982 18.1654 22.8971 17.2018 23.6523 16.3945C24.4206 15.5742 25.319 14.9362 26.3477 14.4805C27.3763 14.0247 28.4635 13.7969 29.6094 13.7969C30.7552 13.7969 31.8424 14.0247 32.8711 14.4805C33.8997 14.9362 34.7917 15.5742 35.5469 16.3945C36.3021 17.2018 36.901 18.1654 37.3438 19.2852C37.7865 20.4049 38.0078 21.6419 38.0078 22.9961ZM49.0234 32.1953C48.0599 32.1953 47.1549 32.0065 46.3086 31.6289C45.4753 31.2383 44.7331 30.7044 44.082 30.0273C43.444 29.3372 42.9362 28.5169 42.5586 27.5664C42.194 26.6029 42.0117 25.5482 42.0117 24.4023V13.9922H45.0195V24.4023C45.0195 25.1445 45.1302 25.8216 45.3516 26.4336C45.5859 27.0456 45.8984 27.5729 46.2891 28.0156C46.6927 28.4583 47.1615 28.8034 47.6953 29.0508C48.2292 29.2852 48.8021 29.4023 49.4141 29.4023C50.8333 29.4023 51.9857 28.9531 52.8711 28.0547C53.7695 27.1432 54.2188 25.9258 54.2188 24.4023V13.9922H57.207V32H55.0195L54.2188 30.0078C53.8411 30.4375 53.3984 30.8086 52.8906 31.1211C52.4349 31.4206 51.888 31.6745 51.25 31.8828C50.625 32.0911 49.8828 32.1953 49.0234 32.1953ZM65.6055 32H62.5977V6.80469H65.6055V32ZM89.1898 16.8047H88.3891C86.9698 16.8047 85.8174 17.2604 84.932 18.1719C84.0466 19.0703 83.6039 20.2812 83.6039 21.8047V32H80.5961V13.9922H82.8031L83.6039 16.0039C83.9815 15.6003 84.4177 15.2422 84.9125 14.9297C85.3682 14.6302 85.9151 14.3698 86.5531 14.1484C87.1911 13.9141 87.9398 13.7969 88.7992 13.7969H89.1898V16.8047ZM99.1898 13.7969C100.179 13.7969 101.091 13.9661 101.924 14.3047C102.771 14.6302 103.493 15.0729 104.092 15.6328C104.691 16.1927 105.153 16.8503 105.479 17.6055C105.817 18.3477 105.987 19.1484 105.987 20.0078V32H103.799L102.998 30.0078C102.595 30.4375 102.139 30.8086 101.631 31.1211C101.176 31.4206 100.616 31.6745 99.9516 31.8828C99.2875 32.0911 98.4997 32.1953 97.5883 32.1953C96.6768 32.1953 95.8565 32.0586 95.1273 31.7852C94.3982 31.4987 93.7732 31.1081 93.2523 30.6133C92.7315 30.1185 92.3214 29.5456 92.0219 28.8945C91.7354 28.2435 91.5922 27.5469 91.5922 26.8047C91.5922 25.9453 91.7615 25.1641 92.1 24.4609C92.4516 23.7578 93.0505 23.1458 93.8969 22.625C94.7562 22.1042 95.9281 21.707 97.4125 21.4336C98.8969 21.1471 100.759 21.0039 102.998 21.0039V20.0078C102.998 19.0964 102.64 18.3021 101.924 17.625C101.221 16.9479 100.31 16.6094 99.1898 16.6094C98.0701 16.6094 97.2432 16.8438 96.7094 17.3125C96.1755 17.7682 95.8044 18.3997 95.5961 19.207H92.393C92.4971 18.4648 92.725 17.7682 93.0766 17.1172C93.4281 16.4531 93.8904 15.8737 94.4633 15.3789C95.0362 14.8841 95.7133 14.5 96.4945 14.2266C97.2758 13.9401 98.1742 13.7969 99.1898 13.7969ZM97.5883 29.4023C98.3826 29.4023 99.1117 29.2786 99.7758 29.0312C100.453 28.7708 101.026 28.4453 101.495 28.0547C101.963 27.651 102.328 27.2018 102.588 26.707C102.862 26.2122 102.998 25.7109 102.998 25.2031V23.7969C101.189 23.7969 99.7367 23.875 98.643 24.0312C97.5492 24.1745 96.6964 24.3893 96.0844 24.6758C95.4854 24.9492 95.0883 25.2812 94.893 25.6719C94.6977 26.0495 94.6 26.4922 94.6 27C94.6 27.612 94.8669 28.1654 95.4008 28.6602C95.9477 29.1549 96.6768 29.4023 97.5883 29.4023ZM118.194 16.6094C117.504 16.6094 116.827 16.7656 116.162 17.0781C115.511 17.3776 114.932 17.8073 114.424 18.3672C113.916 18.9271 113.513 19.5977 113.213 20.3789C112.927 21.1602 112.784 22.0326 112.784 22.9961C112.784 23.9596 112.927 24.8385 113.213 25.6328C113.513 26.4141 113.916 27.0846 114.424 27.6445C114.932 28.2044 115.511 28.6406 116.162 28.9531C116.827 29.2526 117.504 29.4023 118.194 29.4023C118.78 29.4023 119.333 29.2982 119.854 29.0898C120.375 28.8685 120.837 28.5885 121.241 28.25C121.657 27.8984 122.009 27.4948 122.295 27.0391C122.595 26.5833 122.829 26.1016 122.998 25.5938H125.987C125.778 26.5052 125.446 27.3646 124.991 28.1719C124.535 28.9661 123.968 29.6628 123.291 30.2617C122.614 30.8607 121.84 31.3359 120.967 31.6875C120.108 32.026 119.183 32.1953 118.194 32.1953C117.048 32.1953 115.961 31.974 114.932 31.5312C113.903 31.0755 113.005 30.444 112.237 29.6367C111.482 28.8164 110.883 27.8464 110.44 26.7266C110.01 25.6068 109.795 24.3633 109.795 22.9961C109.795 21.6419 110.01 20.4049 110.44 19.2852C110.883 18.1654 111.482 17.2018 112.237 16.3945C113.005 15.5742 113.903 14.9362 114.932 14.4805C115.961 14.0247 117.048 13.7969 118.194 13.7969C119.183 13.7969 120.108 13.9727 120.967 14.3242C121.84 14.6628 122.614 15.138 123.291 15.75C123.968 16.349 124.535 17.0456 124.991 17.8398C125.446 18.6341 125.778 19.487 125.987 20.3984H122.998C122.842 19.8906 122.614 19.4154 122.315 18.9727C122.015 18.5169 121.657 18.1133 121.241 17.7617C120.837 17.4102 120.375 17.1302 119.854 16.9219C119.333 16.7135 118.78 16.6094 118.194 16.6094ZM132.979 32H129.971V6.80469H132.979V32ZM140.577 32L132.979 22.6055L139.776 13.9922H143.174L136.377 22.3906L144.17 32H140.577Z" fill="#333333"/>
<path d="M60.2012 0.207031H86.5977V2.90234H74.9082V38H71.8906V2.90234H60.2012V0.207031Z" fill="#333333"/>
</svg>
