<svg width="809" height="682" viewBox="0 0 809 682" fill="none" xmlns="http://www.w3.org/2000/svg">
<g clip-path="url(#clip0_523_503)">
<path d="M670.665 550.261L402.32 427.756L540.495 125.086L808.84 247.59L670.665 550.261Z" fill="#F2F2F2"/>
<path d="M711.544 374.425L508.399 281.686C508.016 281.511 507.719 281.191 507.572 280.797C507.425 280.403 507.44 279.967 507.615 279.584C507.79 279.202 508.109 278.904 508.503 278.757C508.897 278.61 509.334 278.626 509.716 278.8L712.861 371.54C713.244 371.714 713.541 372.034 713.688 372.428C713.835 372.822 713.82 373.258 713.645 373.641C713.47 374.024 713.151 374.321 712.757 374.468C712.363 374.615 711.926 374.6 711.544 374.425Z" fill="white"/>
<path d="M722.84 349.681L519.695 256.941C519.505 256.855 519.335 256.732 519.193 256.58C519.051 256.427 518.94 256.248 518.868 256.053C518.795 255.858 518.761 255.651 518.769 255.442C518.776 255.234 518.824 255.03 518.911 254.84C518.997 254.651 519.12 254.48 519.273 254.338C519.425 254.196 519.604 254.086 519.799 254.013C519.994 253.94 520.202 253.906 520.41 253.914C520.618 253.921 520.823 253.97 521.012 254.056L724.157 346.795C724.346 346.882 724.517 347.005 724.659 347.157C724.801 347.31 724.911 347.489 724.984 347.684C725.057 347.879 725.091 348.086 725.083 348.295C725.076 348.503 725.027 348.707 724.941 348.897C724.854 349.086 724.731 349.257 724.579 349.399C724.427 349.541 724.248 349.651 724.053 349.724C723.857 349.797 723.65 349.831 723.442 349.823C723.234 349.816 723.029 349.767 722.84 349.681Z" fill="white"/>
<path d="M734.136 324.937L530.992 232.197C530.802 232.111 530.632 231.988 530.49 231.835C530.348 231.683 530.237 231.504 530.165 231.309C530.092 231.114 530.058 230.906 530.065 230.698C530.073 230.49 530.121 230.285 530.208 230.096C530.294 229.906 530.417 229.736 530.57 229.594C530.722 229.452 530.901 229.341 531.096 229.269C531.291 229.196 531.499 229.162 531.707 229.17C531.915 229.177 532.12 229.225 532.309 229.312L735.454 322.051C735.835 322.226 736.132 322.546 736.279 322.94C736.425 323.333 736.409 323.769 736.235 324.151C736.06 324.533 735.742 324.831 735.348 324.978C734.955 325.125 734.519 325.11 734.136 324.937Z" fill="white"/>
<path d="M745.432 300.192L542.288 207.453C542.098 207.366 541.928 207.244 541.786 207.091C541.644 206.939 541.533 206.76 541.46 206.565C541.388 206.37 541.354 206.162 541.361 205.954C541.369 205.746 541.417 205.541 541.504 205.352C541.59 205.162 541.713 204.992 541.865 204.85C542.018 204.708 542.197 204.597 542.392 204.524C542.587 204.452 542.795 204.418 543.003 204.425C543.211 204.433 543.415 204.481 543.605 204.568L746.75 297.307C746.939 297.393 747.11 297.516 747.251 297.669C747.393 297.821 747.504 298 747.577 298.195C747.65 298.39 747.683 298.598 747.676 298.806C747.668 299.014 747.62 299.219 747.534 299.408C747.447 299.598 747.324 299.768 747.172 299.91C747.019 300.052 746.84 300.163 746.645 300.236C746.45 300.308 746.243 300.342 746.035 300.335C745.826 300.327 745.622 300.279 745.432 300.192Z" fill="white"/>
<path d="M701.335 396.787L498.19 304.048C498.001 303.961 497.83 303.838 497.688 303.686C497.546 303.534 497.436 303.355 497.363 303.16C497.29 302.964 497.256 302.757 497.264 302.549C497.271 302.341 497.319 302.136 497.406 301.946C497.492 301.757 497.615 301.586 497.768 301.445C497.92 301.303 498.099 301.192 498.294 301.119C498.489 301.046 498.697 301.013 498.905 301.02C499.113 301.028 499.318 301.076 499.507 301.162L702.652 393.902C703.035 394.076 703.332 394.396 703.479 394.79C703.626 395.184 703.611 395.621 703.436 396.003C703.261 396.386 702.942 396.683 702.548 396.83C702.154 396.977 701.717 396.962 701.335 396.787Z" fill="white"/>
<path d="M735.258 263.895L576.576 191.454C575.683 191.069 574.963 190.37 574.552 189.489C574.14 188.608 574.067 187.606 574.346 186.675C574.517 186.169 574.792 185.704 575.154 185.311C575.515 184.918 575.955 184.605 576.446 184.392C576.936 184.18 577.465 184.073 577.999 184.078C578.534 184.083 579.061 184.201 579.547 184.423L738.18 256.842C739.089 257.228 739.823 257.938 740.241 258.833C740.658 259.729 740.73 260.747 740.441 261.692C740.265 262.192 739.987 262.649 739.624 263.035C739.262 263.422 738.823 263.728 738.335 263.936C737.847 264.143 737.322 264.246 736.792 264.239C736.262 264.232 735.74 264.115 735.258 263.895Z" fill="white"/>
<path d="M124.691 247.59L393.036 125.086L531.211 427.756L262.866 550.261L124.691 247.59Z" fill="#F2F2F2"/>
<path d="M221.988 374.425L425.132 281.686C425.322 281.599 425.492 281.476 425.634 281.324C425.776 281.171 425.887 280.992 425.96 280.797C426.032 280.602 426.066 280.395 426.059 280.187C426.051 279.978 426.003 279.774 425.916 279.584C425.83 279.395 425.707 279.224 425.555 279.082C425.402 278.94 425.223 278.83 425.028 278.757C424.833 278.684 424.625 278.651 424.417 278.658C424.209 278.665 424.005 278.714 423.815 278.8L220.67 371.54C220.481 371.626 220.31 371.749 220.169 371.901C220.027 372.054 219.916 372.233 219.843 372.428C219.77 372.623 219.737 372.831 219.744 373.039C219.752 373.247 219.8 373.451 219.886 373.641C219.973 373.83 220.096 374.001 220.248 374.143C220.401 374.285 220.58 374.395 220.775 374.468C220.97 374.541 221.177 374.575 221.385 374.567C221.594 374.56 221.798 374.512 221.988 374.425Z" fill="white"/>
<path d="M210.692 349.681L413.836 256.942C414.219 256.767 414.517 256.447 414.664 256.053C414.811 255.659 414.795 255.223 414.621 254.84C414.446 254.458 414.126 254.16 413.732 254.013C413.338 253.866 412.902 253.881 412.519 254.056L209.375 346.795C209.185 346.882 209.015 347.005 208.873 347.157C208.731 347.31 208.62 347.489 208.547 347.684C208.475 347.879 208.441 348.086 208.448 348.295C208.456 348.503 208.504 348.707 208.591 348.897C208.677 349.086 208.8 349.257 208.952 349.399C209.105 349.541 209.284 349.651 209.479 349.724C209.674 349.797 209.881 349.831 210.09 349.823C210.298 349.816 210.502 349.767 210.692 349.681Z" fill="white"/>
<path d="M199.395 324.937L402.54 232.197C402.923 232.023 403.22 231.703 403.367 231.309C403.514 230.915 403.499 230.479 403.324 230.096C403.149 229.713 402.83 229.416 402.436 229.269C402.042 229.122 401.605 229.137 401.223 229.312L198.078 322.051C197.696 322.226 197.399 322.546 197.252 322.94C197.105 323.333 197.121 323.769 197.296 324.152C197.47 324.534 197.789 324.832 198.183 324.979C198.577 325.126 199.013 325.111 199.395 324.937Z" fill="white"/>
<path d="M188.099 300.192L391.244 207.453C391.433 207.366 391.604 207.244 391.746 207.091C391.888 206.939 391.998 206.76 392.071 206.565C392.144 206.37 392.177 206.162 392.17 205.954C392.163 205.746 392.114 205.541 392.028 205.352C391.941 205.162 391.818 204.992 391.666 204.85C391.514 204.708 391.335 204.597 391.14 204.524C390.944 204.452 390.737 204.418 390.529 204.425C390.321 204.433 390.116 204.481 389.926 204.568L186.782 297.307C186.399 297.482 186.102 297.801 185.955 298.195C185.808 298.589 185.823 299.026 185.998 299.408C186.172 299.791 186.492 300.089 186.886 300.236C187.28 300.383 187.716 300.367 188.099 300.192Z" fill="white"/>
<path d="M232.197 396.787L435.341 304.048C435.724 303.873 436.022 303.554 436.169 303.16C436.316 302.765 436.3 302.329 436.125 301.946C435.951 301.564 435.631 301.266 435.237 301.119C434.843 300.972 434.407 300.988 434.024 301.162L230.879 393.902C230.69 393.988 230.519 394.111 230.377 394.264C230.236 394.416 230.125 394.595 230.052 394.79C229.979 394.985 229.946 395.193 229.953 395.401C229.961 395.609 230.009 395.814 230.095 396.003C230.182 396.193 230.305 396.363 230.457 396.505C230.61 396.647 230.789 396.758 230.984 396.83C231.179 396.903 231.386 396.937 231.594 396.929C231.803 396.922 232.007 396.874 232.197 396.787Z" fill="white"/>
<path d="M198.274 263.895L356.955 191.454C357.848 191.069 358.569 190.37 358.98 189.489C359.391 188.608 359.464 187.606 359.185 186.675C359.015 186.169 358.739 185.704 358.378 185.311C358.016 184.918 357.576 184.605 357.086 184.392C356.596 184.18 356.066 184.073 355.532 184.078C354.998 184.083 354.471 184.201 353.985 184.423L195.351 256.842C194.442 257.228 193.708 257.938 193.291 258.833C192.873 259.729 192.802 260.747 193.09 261.692C193.266 262.192 193.545 262.649 193.907 263.035C194.27 263.422 194.709 263.728 195.197 263.936C195.684 264.143 196.21 264.246 196.739 264.239C197.269 264.232 197.792 264.115 198.274 263.895Z" fill="white"/>
<path d="M26.8249 604.978C28.5192 578.734 43.1419 552.107 67.4848 542.155C59.2771 569.551 61.0245 598.967 72.4176 625.199C76.8481 635.3 82.8277 646.073 79.854 656.694C78.0038 663.303 72.8316 668.582 66.9054 672.043C60.9788 675.504 54.2851 677.383 47.6745 679.227L46.4213 680.395C34.3667 657.022 25.1307 631.222 26.8249 604.978Z" fill="#F0F0F0"/>
<path d="M67.7605 542.633C54.2533 559.703 46.4683 580.596 45.5111 602.343C45.2219 607.021 45.6719 611.715 46.8446 616.253C48.1297 620.637 50.5652 624.596 53.8981 627.72C56.9471 630.695 60.4105 633.385 62.6832 637.05C63.8188 638.943 64.5413 641.055 64.8034 643.246C65.0656 645.438 64.8614 647.661 64.2044 649.768C62.7038 655.062 59.3906 659.501 55.9997 663.729C52.2347 668.424 48.2497 673.24 46.8874 679.249C46.7224 679.977 45.6024 679.678 45.7672 678.951C48.1374 668.498 57.7674 662.068 61.9759 652.529C63.9396 648.078 64.574 643.009 62.2222 638.573C60.1658 634.694 56.5966 631.917 53.4834 628.931C50.1874 625.931 47.6761 622.17 46.1688 617.976C44.7689 613.512 44.1388 608.843 44.3055 604.168C44.5128 593.638 46.3745 583.205 49.8226 573.253C53.6948 561.872 59.4853 551.238 66.9434 541.81C67.4053 541.227 68.2193 542.053 67.7605 542.633Z" fill="white"/>
<path d="M45.4069 595.322C41.7801 594.666 38.5044 592.743 36.165 589.895C33.8256 587.046 32.5748 583.46 32.6359 579.774C32.6398 579.624 32.7018 579.481 32.809 579.376C32.9161 579.27 33.06 579.211 33.2104 579.209C33.3607 579.208 33.5057 579.265 33.6148 579.368C33.7239 579.472 33.7886 579.613 33.7953 579.764C33.732 583.195 34.8975 586.536 37.0814 589.184C39.2652 591.831 42.3236 593.611 45.7045 594.202C46.4391 594.331 46.1373 595.451 45.4069 595.322Z" fill="white"/>
<path d="M52.1535 626.415C58.3823 622.176 62.7846 615.745 64.4825 608.405C64.6501 607.677 65.7702 607.976 65.6027 608.702C63.8216 616.338 59.2267 623.021 52.7352 627.417C52.1162 627.836 51.5378 626.831 52.1535 626.415Z" fill="white"/>
<path d="M54.8337 562.905C56.1842 563.451 57.6491 563.653 59.097 563.493C60.5449 563.333 61.9305 562.816 63.1292 561.989C63.7426 561.562 64.3203 562.568 63.7109 562.991C62.3822 563.9 60.8514 564.469 59.252 564.649C57.6527 564.829 56.0336 564.615 54.5362 564.025C54.3904 563.981 54.2667 563.884 54.1903 563.752C54.1139 563.62 54.0905 563.464 54.1248 563.316C54.165 563.168 54.262 563.042 54.3947 562.965C54.5275 562.888 54.6852 562.866 54.8337 562.905Z" fill="white"/>
<path d="M145.979 584.194C145.604 584.471 145.228 584.748 144.853 585.035C139.824 588.786 135.109 592.94 130.753 597.455C130.411 597.798 130.069 598.152 129.737 598.505C119.359 609.494 111.112 622.314 105.414 636.315C103.151 641.888 101.317 647.625 99.9247 653.476C98.003 661.557 96.5624 670.472 92.2114 677.247C91.7654 677.959 91.2757 678.643 90.7452 679.294L47.9437 681.833C47.8435 681.79 47.7434 681.757 47.6428 681.714L45.9385 681.894C45.9892 681.587 46.0484 681.27 46.0991 680.963C46.1277 680.785 46.166 680.606 46.1946 680.428C46.2168 680.309 46.2394 680.19 46.2525 680.082C46.2598 680.042 46.2675 680.002 46.2753 679.972C46.2884 679.864 46.3122 679.764 46.326 679.666C46.6519 677.892 46.9908 676.118 47.3428 674.343C47.3422 674.333 47.3422 674.333 47.3512 674.323C50.0676 660.805 53.9364 647.394 59.7177 634.998C59.8917 634.625 60.0647 634.242 60.2583 633.868C62.8953 628.295 65.9833 622.946 69.4916 617.876C71.4216 615.106 73.4905 612.435 75.6905 609.874C81.3877 603.268 88.0886 597.599 95.5474 593.076C110.418 584.06 128.006 579.9 144.706 583.878C145.133 583.98 145.551 584.082 145.979 584.194Z" fill="#F0F0F0"/>
<path d="M145.916 584.743C124.853 590.241 106.059 602.235 92.2011 619.022C89.1538 622.583 86.6868 626.602 84.891 630.932C83.2779 635.205 82.8387 639.833 83.619 644.334C84.2622 648.545 85.4079 652.778 85.0162 657.073C84.7831 659.268 84.0886 661.389 82.9782 663.297C81.8679 665.205 80.3667 666.856 78.5733 668.144C74.1879 671.467 68.87 673.016 63.6169 674.351C57.7843 675.832 51.7026 677.279 46.9973 681.256C46.4272 681.738 45.7128 680.825 46.282 680.344C54.4684 673.424 66.0284 674.089 75.1316 669.006C79.3793 666.635 82.9381 662.969 83.7311 658.011C84.4245 653.676 83.2468 649.31 82.5587 645.051C81.7331 640.672 81.9925 636.157 83.3142 631.9C84.8838 627.494 87.1918 623.386 90.1395 619.754C96.6452 611.471 104.413 604.262 113.158 598.391C123.101 591.636 134.127 586.632 145.758 583.594C146.478 583.407 146.631 584.556 145.916 584.743Z" fill="white"/>
<path d="M96.3444 613.354C93.8434 610.647 92.3863 607.139 92.2332 603.456C92.08 599.774 93.2409 596.157 95.5084 593.251C95.9692 592.665 96.902 593.353 96.4406 593.94C94.3241 596.642 93.2431 600.012 93.3927 603.44C93.5423 606.869 94.9126 610.132 97.2564 612.639C97.7651 613.184 96.8502 613.897 96.3444 613.354Z" fill="white"/>
<path d="M83.0107 642.242C90.5361 642.607 97.9229 640.123 103.698 635.284C104.27 634.805 104.984 635.717 104.413 636.197C98.3942 641.221 90.7018 643.79 82.8716 643.392C82.1252 643.354 82.2685 642.203 83.0107 642.242Z" fill="white"/>
<path d="M123.389 593.146C124.138 594.395 125.186 595.438 126.438 596.182C127.691 596.927 129.108 597.348 130.563 597.409C131.31 597.438 131.166 598.588 130.424 598.56C128.817 598.485 127.252 598.018 125.866 597.198C124.481 596.379 123.317 595.234 122.476 593.861C122.386 593.738 122.346 593.586 122.365 593.435C122.383 593.284 122.458 593.145 122.575 593.047C122.696 592.953 122.85 592.911 123.002 592.929C123.154 592.948 123.293 593.025 123.389 593.146Z" fill="white"/>
<path d="M666.417 552.805H265.161V100.222H666.417V552.805Z" fill="white"/>
<path d="M666.417 552.805H265.161V100.222H666.417V552.805ZM267.318 550.648H664.26V102.38H267.318L267.318 550.648Z" fill="#CACACA"/>
<path d="M617.67 312.132H313.908C313.625 312.132 313.344 312.076 313.083 311.968C312.821 311.86 312.583 311.701 312.383 311.5C312.182 311.3 312.024 311.062 311.915 310.8C311.807 310.539 311.751 310.258 311.751 309.975C311.751 309.692 311.807 309.411 311.915 309.149C312.024 308.888 312.182 308.65 312.383 308.449C312.583 308.249 312.821 308.09 313.083 307.982C313.344 307.873 313.625 307.818 313.908 307.818H617.67C618.242 307.818 618.791 308.045 619.196 308.449C619.6 308.854 619.827 309.403 619.827 309.975C619.827 310.547 619.6 311.096 619.196 311.5C618.791 311.905 618.242 312.132 617.67 312.132Z" fill="#E4E4E4"/>
<path d="M617.67 275.132H313.908C313.336 275.132 312.787 274.905 312.383 274.5C311.978 274.096 311.751 273.547 311.751 272.975C311.751 272.403 311.978 271.854 312.383 271.449C312.787 271.045 313.336 270.818 313.908 270.818H617.67C618.242 270.818 618.791 271.045 619.196 271.449C619.6 271.854 619.827 272.403 619.827 272.975C619.827 273.547 619.6 274.096 619.196 274.5C618.791 274.905 618.242 275.132 617.67 275.132Z" fill="#E4E4E4"/>
<path d="M617.67 238.132H313.908C313.625 238.132 313.344 238.076 313.083 237.968C312.821 237.86 312.583 237.701 312.383 237.5C312.182 237.3 312.024 237.062 311.915 236.8C311.807 236.539 311.751 236.258 311.751 235.975C311.751 235.692 311.807 235.411 311.915 235.149C312.024 234.888 312.182 234.65 312.383 234.449C312.583 234.249 312.821 234.09 313.083 233.982C313.344 233.873 313.625 233.818 313.908 233.818H617.67C618.242 233.818 618.791 234.045 619.196 234.449C619.6 234.854 619.827 235.403 619.827 235.975C619.827 236.547 619.6 237.096 619.196 237.5C618.791 237.905 618.242 238.132 617.67 238.132Z" fill="#E4E4E4"/>
<path d="M617.67 201.132H313.908C313.336 201.132 312.787 200.905 312.383 200.5C311.978 200.096 311.751 199.547 311.751 198.975C311.751 198.403 311.978 197.854 312.383 197.449C312.787 197.045 313.336 196.818 313.908 196.818H617.67C618.242 196.818 618.791 197.045 619.196 197.449C619.6 197.854 619.827 198.403 619.827 198.975C619.827 199.547 619.6 200.096 619.196 200.5C618.791 200.905 618.242 201.132 617.67 201.132Z" fill="#E4E4E4"/>
<path d="M617.67 345.57H313.908C313.336 345.57 312.787 345.343 312.383 344.938C311.978 344.534 311.751 343.985 311.751 343.413C311.751 342.841 311.978 342.292 312.383 341.887C312.787 341.483 313.336 341.256 313.908 341.256H617.67C618.242 341.256 618.791 341.483 619.196 341.887C619.6 342.292 619.827 342.841 619.827 343.413C619.827 343.985 619.6 344.534 619.196 344.938C618.791 345.343 618.242 345.57 617.67 345.57Z" fill="#E4E4E4"/>
<path d="M617.67 511.57H313.908C313.336 511.57 312.787 511.343 312.383 510.938C311.978 510.534 311.751 509.985 311.751 509.413C311.751 508.841 311.978 508.292 312.383 507.888C312.787 507.483 313.336 507.256 313.908 507.256H617.67C618.242 507.256 618.791 507.483 619.196 507.888C619.6 508.292 619.827 508.841 619.827 509.413C619.827 509.985 619.6 510.534 619.196 510.938C618.791 511.343 618.242 511.57 617.67 511.57Z" fill="#E4E4E4"/>
<path d="M544.905 476.941H386.674C385.616 476.939 384.602 476.519 383.854 475.771C383.106 475.023 382.686 474.009 382.685 472.952V379.874C382.686 378.817 383.106 377.803 383.854 377.055C384.602 376.307 385.616 375.887 386.674 375.885H544.905C545.962 375.887 546.976 376.307 547.724 377.055C548.472 377.803 548.892 378.817 548.894 379.874V472.952C548.892 474.009 548.472 475.023 547.724 475.771C546.976 476.519 545.962 476.939 544.905 476.941Z" fill="white"/>
<path d="M492.064 423.767C491.259 422.905 490.288 422.213 489.21 421.734C488.132 421.254 486.969 420.996 485.789 420.975C484.609 420.954 483.438 421.17 482.343 421.611C481.249 422.052 480.254 422.708 479.418 423.541L434.888 468.072C433.712 469.246 432.118 469.906 430.456 469.908C428.795 469.911 427.199 469.255 426.019 468.085L419.424 461.503C418.609 460.687 417.641 460.04 416.575 459.599C415.51 459.157 414.368 458.93 413.214 458.93C412.061 458.93 410.919 459.157 409.853 459.599C408.788 460.04 407.82 460.687 407.005 461.503L394.24 474.281H537.339V472.46L492.064 423.767Z" fill="#FBEECE"/>
<path d="M544.905 476.941H386.674C385.616 476.939 384.602 476.519 383.854 475.771C383.106 475.023 382.686 474.009 382.685 472.952V379.874C382.686 378.817 383.106 377.803 383.854 377.055C384.602 376.307 385.616 375.887 386.674 375.885H544.905C545.962 375.887 546.976 376.307 547.724 377.055C548.472 377.803 548.892 378.817 548.894 379.874V472.952C548.892 474.009 548.472 475.023 547.724 475.771C546.976 476.519 545.962 476.939 544.905 476.941ZM386.674 378.545C386.321 378.545 385.983 378.685 385.734 378.935C385.485 379.184 385.344 379.522 385.344 379.875V472.952C385.344 473.304 385.485 473.642 385.734 473.891C385.983 474.141 386.321 474.281 386.674 474.281H544.905C545.257 474.281 545.595 474.141 545.844 473.891C546.094 473.642 546.234 473.304 546.234 472.952V379.874C546.234 379.522 546.094 379.184 545.844 378.935C545.595 378.685 545.257 378.545 544.905 378.545L386.674 378.545Z" fill="#3F3D56"/>
<path d="M163.438 461.382C163.839 459.968 163.925 458.483 163.69 457.032C163.455 455.581 162.905 454.199 162.078 452.983C161.252 451.767 160.168 450.748 158.905 449.996C157.642 449.245 156.229 448.779 154.766 448.633L146.475 413.873L133.768 427.414L143.589 458.346C143.506 460.82 144.333 463.238 145.913 465.143C147.494 467.048 149.718 468.306 152.165 468.681C154.611 469.055 157.11 468.519 159.188 467.173C161.266 465.828 162.778 463.768 163.438 461.382Z" fill="#FFB6B6"/>
<path d="M141.276 448.775C140.676 448.575 140.125 448.251 139.659 447.825C139.192 447.398 138.821 446.878 138.568 446.299L120.989 403.301C116.507 392.993 115.921 381.407 119.341 370.699L130.605 335.416C130.777 333.518 131.32 331.673 132.205 329.986C133.09 328.298 134.299 326.802 135.762 325.582C137.226 324.363 138.916 323.443 140.735 322.877C142.554 322.311 144.467 322.109 146.364 322.282C148.261 322.456 150.106 323.002 151.792 323.889C153.478 324.776 154.973 325.987 156.191 327.452C157.409 328.917 158.326 330.608 158.89 332.428C159.454 334.247 159.654 336.161 159.478 338.058L144.54 394.873L154.545 439.495C154.701 440.407 154.574 441.344 154.181 442.181C153.787 443.018 153.146 443.714 152.344 444.174L144.928 448.412C144.133 448.866 143.218 449.067 142.305 448.987C141.955 448.957 141.609 448.886 141.276 448.775Z" fill="#E4E4E4"/>
<path d="M203.799 669.082H216.058L221.891 621.794H203.796L203.799 669.082Z" fill="#FFB6B6"/>
<path d="M200.671 665.079L224.815 665.078H224.816C228.897 665.079 232.81 666.7 235.695 669.585C238.581 672.471 240.202 676.384 240.202 680.465V680.965L200.672 680.966L200.671 665.079Z" fill="#2F2E41"/>
<path d="M134.799 669.082H147.058L152.891 621.794H134.796L134.799 669.082Z" fill="#FFB6B6"/>
<path d="M131.671 665.079L155.815 665.078H155.816C159.897 665.079 163.81 666.7 166.695 669.585C169.581 672.471 171.202 676.384 171.202 680.465V680.965L131.672 680.966L131.671 665.079Z" fill="#2F2E41"/>
<path d="M211.181 430.565L139.284 424.239C139.284 424.239 132.181 469.565 133.181 487.565C134.181 505.565 135.181 533.565 135.181 533.565L127.181 655.565L158.181 651.565L162.181 550.565L175.181 495.565L190.181 565.565L200.181 655.565L227.181 652.565L218.181 543.565C218.181 543.565 226.181 445.565 211.181 430.565Z" fill="#EAEECA"/>
<path d="M182.181 297.565C193.226 297.565 202.181 288.611 202.181 277.565C202.181 266.519 193.226 257.565 182.181 257.565C171.135 257.565 162.181 266.519 162.181 277.565C162.181 288.611 171.135 297.565 182.181 297.565Z" fill="#FFB8B8"/>
<path d="M204.082 322.222L189.798 310.851C189.798 310.851 174.329 298.915 165.255 307.74L161.181 313.565C161.181 313.565 138.082 322.222 138.082 333.222L139.181 393.565C139.181 393.565 131.181 424.565 143.181 426.565L213.082 432.222L212.181 374.565L204.082 322.222Z" fill="#E4E4E4"/>
<path d="M166.681 295.065C166.681 295.065 145.681 280.065 156.681 262.065C164.312 249.578 180.125 250.566 189.095 252.343C191.511 252.789 193.783 253.816 195.714 255.335C197.646 256.855 199.179 258.821 200.181 261.065C201.681 264.565 201.681 268.065 195.681 268.065C183.681 268.065 189.681 277.065 189.681 277.065C189.681 277.065 181.681 279.065 183.681 286.065C185.681 293.065 166.681 295.065 166.681 295.065Z" fill="#2F2E41"/>
<path d="M276.239 427.61C275.867 426.188 275.187 424.864 274.248 423.733C273.309 422.603 272.133 421.691 270.803 421.064C269.474 420.436 268.023 420.108 266.553 420.102C265.083 420.096 263.629 420.412 262.295 421.029L237.503 395.293L233.431 413.411L257.598 435.072C258.782 437.246 260.723 438.909 263.051 439.748C265.38 440.586 267.936 440.541 270.233 439.621C272.531 438.701 274.412 436.97 275.519 434.757C276.626 432.543 276.882 430 276.239 427.61Z" fill="#FFB6B6"/>
<path d="M250.746 428.001C250.127 428.134 249.488 428.135 248.87 428.004C248.251 427.873 247.667 427.614 247.156 427.243L210.179 399.126C201.083 392.522 194.695 382.838 192.205 371.876L183.993 335.76C183.176 334.039 182.706 332.173 182.611 330.269C182.516 328.365 182.797 326.462 183.438 324.667C184.079 322.872 185.068 321.221 186.348 319.809C187.628 318.396 189.174 317.25 190.897 316.436C192.621 315.622 194.488 315.156 196.391 315.064C198.295 314.972 200.198 315.257 201.992 315.901C203.786 316.546 205.435 317.538 206.845 318.821C208.254 320.103 209.398 321.651 210.208 323.376L226.188 379.908L257.465 413.269C258.062 413.975 258.429 414.847 258.515 415.768C258.601 416.689 258.402 417.614 257.945 418.418L253.707 425.834C253.253 426.629 252.566 427.267 251.74 427.662C251.423 427.814 251.089 427.928 250.746 428.001Z" fill="#E4E4E4"/>
<path d="M758.656 30.1771H181.1C180.878 30.1764 180.666 30.0877 180.509 29.9306C180.353 29.7735 180.265 29.5607 180.265 29.3389C180.265 29.117 180.353 28.9043 180.509 28.7471C180.666 28.59 180.878 28.5014 181.1 28.5006H758.656C758.878 28.5014 759.09 28.59 759.247 28.7471C759.403 28.9043 759.491 29.117 759.491 29.3389C759.491 29.5607 759.403 29.7735 759.247 29.9306C759.09 30.0877 758.878 30.1764 758.656 30.1771Z" fill="#CACACA"/>
<path d="M199.967 18.4415C205.059 18.4415 209.188 14.3133 209.188 9.22077C209.188 4.12828 205.059 0 199.967 0C194.874 0 190.746 4.12828 190.746 9.22077C190.746 14.3133 194.874 18.4415 199.967 18.4415Z" fill="#EAEECA"/>
<path d="M231.821 18.4415C236.914 18.4415 241.042 14.3133 241.042 9.22077C241.042 4.12828 236.914 0 231.821 0C226.729 0 222.601 4.12828 222.601 9.22077C222.601 14.3133 226.729 18.4415 231.821 18.4415Z" fill="#EAEECA"/>
<path d="M263.675 18.4415C268.767 18.4415 272.896 14.3133 272.896 9.22077C272.896 4.12828 268.767 0 263.675 0C258.582 0 254.454 4.12828 254.454 9.22077C254.454 14.3133 258.582 18.4415 263.675 18.4415Z" fill="#EAEECA"/>
<path d="M739.571 5.63999H716.938C716.495 5.63846 716.07 5.46115 715.757 5.14691C715.443 4.83267 715.268 4.40712 715.268 3.96349C715.268 3.51985 715.443 3.09431 715.757 2.78007C716.07 2.46583 716.495 2.28852 716.938 2.28699H739.571C740.015 2.28852 740.44 2.46583 740.753 2.78007C741.066 3.09431 741.242 3.51985 741.242 3.96349C741.242 4.40712 741.066 4.83267 740.753 5.14691C740.44 5.46115 740.015 5.63846 739.571 5.63999Z" fill="#EAEECA"/>
<path d="M739.571 11.927H716.938C716.495 11.9254 716.07 11.7481 715.757 11.4339C715.443 11.1197 715.268 10.6941 715.268 10.2505C715.268 9.80685 715.443 9.38129 715.757 9.06705C716.07 8.75282 716.495 8.57551 716.938 8.57397H739.571C740.015 8.57551 740.44 8.75282 740.753 9.06705C741.066 9.38129 741.242 9.80685 741.242 10.2505C741.242 10.6941 741.066 11.1197 740.753 11.4339C740.44 11.7481 740.015 11.9254 739.571 11.927Z" fill="#EAEECA"/>
<path d="M739.571 18.2138H716.938C716.495 18.2123 716.07 18.035 715.757 17.7208C715.443 17.4065 715.268 16.981 715.268 16.5373C715.268 16.0937 715.443 15.6682 715.757 15.3539C716.07 15.0397 716.495 14.8624 716.938 14.8608H739.571C740.015 14.8624 740.44 15.0397 740.753 15.3539C741.066 15.6682 741.242 16.0937 741.242 16.5373C741.242 16.981 741.066 17.4065 740.753 17.7208C740.44 18.035 740.015 18.2123 739.571 18.2138Z" fill="#EAEECA"/>
<path d="M382 681.222H1C0.734784 681.222 0.480429 681.117 0.292892 680.93C0.105356 680.742 0 680.488 0 680.222C0 679.957 0.105356 679.703 0.292892 679.515C0.480429 679.328 0.734784 679.222 1 679.222H382C382.265 679.222 382.52 679.328 382.707 679.515C382.895 679.703 383 679.957 383 680.222C383 680.488 382.895 680.742 382.707 680.93C382.52 681.117 382.265 681.222 382 681.222Z" fill="#CACACA"/>
<path d="M584.575 161.965H347.299C345.977 161.994 344.69 161.536 343.684 160.678C342.677 159.82 342.021 158.622 341.84 157.312C341.765 156.589 341.843 155.858 342.068 155.167C342.294 154.477 342.662 153.841 343.148 153.301C343.635 152.762 344.23 152.33 344.893 152.035C345.557 151.739 346.276 151.587 347.003 151.587H584.207C585.55 151.551 586.859 152.014 587.882 152.887C588.904 153.759 589.568 154.979 589.745 156.311C589.809 157.029 589.723 157.752 589.493 158.435C589.262 159.118 588.892 159.745 588.406 160.277C587.92 160.809 587.328 161.234 586.668 161.524C586.009 161.815 585.296 161.965 584.575 161.965Z" fill="#FBEECE"/>
</g>
<defs>
<clipPath id="clip0_523_503">
<rect width="808.841" height="681.894" fill="white"/>
</clipPath>
</defs>
</svg>
